PathFileType	4	(X/Y/Z)	pose_F01_0-88.trc
DataRate	CameraRate	NumFrames	NumMarkers	Units	OrigDataRate	OrigDataStartFrame	OrigNumFrames
30	30	7	21	m	30	55	88
Frame#	Time	CHip			RHip			RKnee			RAnkle			RBigToe			RSmallToe			RHeel			LHip			LKnee			LAnkle			LBigToe			LSmallToe			LHeel			Neck			Nose			RShoulder			RElbow			RWrist			LShoulder			LElbow			LWrist			
		X1	Y1	Z1	X2	Y2	Z2	X3	Y3	Z3	X4	Y4	Z4	X5	Y5	Z5	X6	Y6	Z6	X7	Y7	Z7	X8	Y8	Z8	X9	Y9	Z9	X10	Y10	Z10	X11	Y11	Z11	X12	Y12	Z12	X13	Y13	Z13	X14	Y14	Z14	X15	Y15	Z15	X16	Y16	Z16	X17	Y17	Z17	X18	Y18	Z18	X19	Y19	Z19	X20	Y20	Z20	X21	Y21	Z21	
55	1.8333333333333333	-0.16728686419415922	1.8386795809071599	-0.5879112961458967	-0.18094273003438685	1.8382108311696257	-0.5295138396632001	-0.2064060813205561	1.7174230345580344	-0.49031819326186404	-0.17283016622936326	1.608085182158165	-0.5186363468414806	-0.19398922210922026	1.5694150144192902	-0.49039051664179545	-0.1929356087136778	1.5747683625466091	-0.46531407729969176	-0.16426284381077824	1.6021176271909254	-0.5361432154117073	-0.15422437475824322	1.839232589806428	-0.6525226039143607	-0.16151252585693085	1.7136172699634664	-0.6297936217047658	-0.16326593739812187	1.5918312300676334	-0.6132119912385462	-0.19630117214614073	1.5581647876113376	-0.5833200007932035	-0.18445355839521427	1.5601920582091722	-0.616893329780058	-0.15253817319462643	1.5821841426803147	-0.6098616833938586	-0.15472469661631175	1.991195702351771	-0.6206823588429083	-0.17833381457019887	2.05486899062343	-0.6030151249997395	-0.16889580152092154	1.9885714050313805	-0.5337953166139345	-0.16132984531336653	1.920360157802026	-0.49848153862356237	-0.18494914257987585	1.8824039273741073	-0.47597964314533503	-0.1378343144446383	1.9941313820195272	-0.7153330405085425	-0.12442923474843533	1.9212892878578443	-0.7431170390811342	-0.17956860413481865	1.8896828323742643	-0.6764987624834593
56	1.8666666666666667	-0.17029156639444445	1.8402399017802802	-0.5979271887232956	-0.1821293967939595	1.8409710265076922	-0.5333902476934946	-0.21611769281549703	1.7279517672732476	-0.480723950493626	-0.17706387168733162	1.6205110816276191	-0.511714114025892	-0.197641895832465	1.5769503026214216	-0.48841547483077274	-0.19371456830162542	1.5834913707334444	-0.46201721380501154	-0.1686721489520491	1.6190059920986983	-0.5299183674949474	-0.1541505669439977	1.8410207607997024	-0.6615959840516314	-0.16100177902010693	1.7138010958487153	-0.6345643590277171	-0.16331375119893815	1.5890827515614196	-0.6127643196724343	-0.19582325165753287	1.5579483743597031	-0.5841444407674398	-0.18434043705621245	1.558927044022254	-0.6171952934410174	-0.15160653663602766	1.578249508586443	-0.6063295833502278	-0.15718008476815215	1.9928125707170186	-0.6299766948008514	-0.17725571712753632	2.0551440186885035	-0.6083340956250003	-0.17060566137011926	1.989903465218742	-0.5402252103616325	-0.16400533906265705	1.9225042124536025	-0.5082039268816261	-0.1769712214831021	1.8775263736947734	-0.48291142736362386	-0.13946865954435278	1.9969733979105049	-0.7217557367329362	-0.13183605898294895	1.9214197100479615	-0.7505910062067146	-0.19004954720005052	1.8969793493651408	-0.6658171642315589
57	1.9	-0.17135317792851124	1.841586708554945	-0.6012615445410183	-0.18344594363349803	1.8424983322679758	-0.5367005326396052	-0.22340241485777357	1.7383162670670393	-0.47851111103976857	-0.17866992213702787	1.6354540435633689	-0.5114652566042452	-0.19970803141272994	1.5909365579998491	-0.4881167194170801	-0.19604411232909522	1.5985111551784308	-0.46153551938533655	-0.167328172143124	1.6363682970029108	-0.5293421371856816	-0.15735547531123523	1.8398435001869597	-0.662194098148685	-0.15753014558764758	1.7120739597128518	-0.637960135902071	-0.16570125546099826	1.5875594316918369	-0.6098935129406692	-0.1939687126930325	1.5566652205419593	-0.5858970676238067	-0.1842778039159816	1.5588952528107476	-0.6173184659952482	-0.15606266060338422	1.5793459489773811	-0.6014713288620427	-0.15804088510144826	1.9942018920220215	-0.6335753663233881	-0.17812494848713892	2.0564951694306957	-0.6119166376592894	-0.1706571770461102	1.9912541032464561	-0.5407880317095427	-0.16544681752369061	1.9221321270644351	-0.5109487667706676	-0.17904945922165016	1.8760281038495001	-0.48365017346782313	-0.13935665253003554	1.99809894493847	-0.7219218251147707	-0.13399537170986014	1.9203321334663213	-0.7594728633944855	-0.190150296311483	1.9076382591347711	-0.6674661641791045
58	1.9333333333333333	-0.17155623318262578	1.8403387994361082	-0.6010025453621703	-0.18348796201496584	1.842428025616538	-0.5366732196012902	-0.22602424582066397	1.7441172726286573	-0.4852337759119446	-0.17817771185130118	1.645074972316071	-0.5126283491332944	-0.19698491982836305	1.601831906284168	-0.49187922474260354	-0.19323087861222238	1.608902873903854	-0.4653842415529379	-0.16852524306631836	1.6472665824721868	-0.5284638322639913	-0.1595012310265138	1.8396930667787579	-0.6598678358062176	-0.16153143375507137	1.7155255664110483	-0.634240373062347	-0.1637610336078663	1.588968844038216	-0.6118786625876839	-0.19396984651446786	1.5595629765490913	-0.5861337605640314	-0.18457527477830016	1.5604004068754922	-0.6169591557410797	-0.15378539960404636	1.5790540434729663	-0.603741974907074	-0.15800376879479117	1.9953196219727063	-0.6336974298683169	-0.17814817687932968	2.056467473164845	-0.6119642297569947	-0.1715796785371916	1.9913619214241336	-0.5438993434852223	-0.16688829598472418	1.9217600416752676	-0.5136936066597092	-0.18112769696019823	1.874529834004227	-0.48438891957202246	-0.14014636047843315	1.9981951021339612	-0.7248955152061909	-0.1345979853246082	1.9190792444846227	-0.7624582266712772	-0.18467429777573008	1.9139170510742645	-0.6785467968191864
59	1.9666666666666666	-0.1735623659708984	1.842891097079709	-0.5992366812062954	-0.18542674994418162	1.845130530351452	-0.5349197845975927	-0.2188182310276967	1.7404101388513367	-0.49285388594813634	-0.17729908510322034	1.6417187687293784	-0.5127461819061853	-0.20026094498738542	1.5988589650248777	-0.48698689052448757	-0.19586927445712438	1.6053939378355853	-0.465491928403744	-0.166953213840608	1.6408099969997896	-0.5327718524880268	-0.15953071929972867	1.8421867441183986	-0.6602082202864087	-0.16424139057712708	1.7164554397335632	-0.6354320677149459	-0.16449659083204388	1.5889515319152308	-0.6073366937480695	-0.19375053716067928	1.5581106480751217	-0.5864137043233559	-0.18426307376715745	1.5589834007321146	-0.6172232946426617	-0.1536456296828844	1.5780918682914726	-0.6039830455928714	-0.15892524157211693	1.994272401973368	-0.6367491902871397	-0.1801722846019229	2.0563598096417146	-0.6098021062747281	-0.17247229423029736	1.9914897870836046	-0.5470186106588906	-0.16832977444575775	1.9213879562861003	-0.5164384465487508	-0.1832059346987463	1.8730315641589534	-0.48512766567622173	-0.14024863678838276	1.9970213873150182	-0.7250290390698015	-0.13540899056650235	1.9192777896834097	-0.7655618451030858	-0.1903469605069273	1.9140338236496515	-0.6889688832275557
60	2.0	-0.17343810342607854	1.8415246998653119	-0.5988760108591383	-0.1846189030326973	1.8424730929745097	-0.5312675354139236	-0.21175436704041578	1.7298514083830492	-0.49476652226034573	-0.1762438739737458	1.6256568079675509	-0.5116073646383487	-0.20105057547168992	1.5862330356320589	-0.4840850418960249	-0.19627679766125508	1.593671768711104	-0.46313611663256626	-0.16782044465157456	1.620134434892931	-0.5290295787147696	-0.16132297788767463	1.841991541855167	-0.6578920419893607	-0.16344135438367172	1.7163695818718667	-0.6322391494169811	-0.16335107853677402	1.5890254186471666	-0.6127225302786515	-0.19619495238127768	1.5567422935113029	-0.5835423956611677	-0.1867175424373005	1.5574179400840926	-0.6143799490074269	-0.15152242949163736	1.5780108578206147	-0.6063294446620981	-0.16104088066116984	1.9941495952782593	-0.634374989368399	-0.1802564566729988	2.0563781204591196	-0.6097425027807454	-0.17364833515810846	1.9912751173366288	-0.5417124449380162	-0.16977125290679132	1.921015870896933	-0.5191832864377923	-0.18528417243729436	1.8715332943136802	-0.485866411780421	-0.1403007823128619	1.9968842631532497	-0.7248522521359501	-0.12920847245848477	1.9178717912015772	-0.7638540344472102	-0.18011989090486785	1.9103247769962293	-0.6800088138421435
61	2.033333333333333	-0.1789996131427551	1.8413300634597163	-0.5886899677187832	-0.19080920308507446	1.8421955179663105	-0.5242902806570013	-0.1929798762966151	1.7188979287470938	-0.5095355952498722	-0.17350306858809272	1.605669075341414	-0.5115286632619727	-0.1972016834003634	1.570585349863666	-0.4861775280094863	-0.19163382461069242	1.5789687398908379	-0.4620548371748921	-0.16973111458820295	1.5977686259547041	-0.5232938676859739	-0.16726572676765214	1.84044366922284	-0.6475940465867995	-0.1755298429571124	1.7169120452907998	-0.6194347798968866	-0.16352142242826345	1.587608574801375	-0.6123628725681333	-0.19433106602432243	1.5555998514869547	-0.58526063881084	-0.1878646521054106	1.555710814290448	-0.6170065285946054	-0.15052312656624772	1.5766098228507177	-0.6113167803749998	-0.162507662878548	1.9928219293218763	-0.6289658444986062	-0.18225199600372158	2.0562985643480594	-0.6075570507134053	-0.17781930180923494	1.9899728769183465	-0.5370872750928651	-0.17319417481497562	1.9204802264907836	-0.5116138347664816	-0.1972740897231057	1.8780958371221899	-0.4646695039760346	-0.14168760999250132	1.995558623533919	-0.7192020174777343	-0.1241471447171677	1.9205621619204216	-0.7659120782837658	-0.16751247034823769	1.892089578302813	-0.6914128005981016
